<svg width="422" height="93" viewBox="0 0 422 93" fill="none" xmlns="http://www.w3.org/2000/svg">
<g clip-path="url(#clip0_936_6261)">
<path d="M217.168 46.5415C218.36 47.1646 219.301 48.0784 219.97 49.3037C220.66 50.529 220.995 51.9828 220.995 53.7066V64.9006H217.064V54.2881C217.064 52.5851 216.646 51.2767 215.788 50.3837C214.931 49.4699 213.76 49.013 212.275 49.013C210.791 49.013 209.62 49.4699 208.763 50.3837C207.905 51.2975 207.466 52.6059 207.466 54.2881V64.9006H203.535V54.2881C203.535 52.5851 203.117 51.2767 202.26 50.3837C201.402 49.4699 200.231 49.013 198.747 49.013C197.262 49.013 196.091 49.4699 195.234 50.3837C194.377 51.2975 193.938 52.6059 193.938 54.2881V64.9006H189.986V45.9185H191.763C192.976 45.9185 193.959 46.8946 193.959 48.0992C194.607 47.31 195.422 46.7077 196.426 46.2716C197.43 45.8354 198.475 45.607 199.625 45.607C201.152 45.607 202.511 45.9185 203.723 46.5623C204.936 47.2061 205.856 48.1407 206.504 49.3452C207.194 47.9745 208.365 46.9361 209.975 46.23C210.958 45.7939 212.045 45.5862 213.133 45.5862C214.638 45.5862 215.997 45.8977 217.189 46.5208L217.168 46.5415Z" fill="black"/>
<path d="M243.431 56.8841H228.815C228.94 58.4002 229.505 59.6255 230.509 60.5393C231.533 61.4531 232.767 61.91 234.252 61.91C236.384 61.91 237.89 61.017 238.768 59.2517H243.034C242.448 60.9962 241.403 62.4292 239.897 63.5507C238.392 64.6722 236.51 65.2121 234.252 65.2121C232.432 65.2121 230.781 64.7968 229.338 63.9868C227.895 63.1769 226.766 62.0138 225.929 60.5393C225.114 59.0648 224.696 57.341 224.696 55.3888C224.696 53.4366 225.093 51.7128 225.888 50.2383C226.682 48.7637 227.811 47.6215 229.254 46.8115C230.697 46.0016 232.37 45.607 234.231 45.607C236.092 45.607 237.639 46.0016 239.061 46.77C240.462 47.5592 241.57 48.6391 242.365 50.0514C243.159 51.4636 243.535 53.0835 243.535 54.9319C243.535 55.638 243.494 56.2818 243.389 56.8633L243.431 56.8841ZM239.437 53.7066C239.416 52.2528 238.894 51.0898 237.869 50.2175C236.844 49.3452 235.59 48.9091 234.084 48.9091C232.725 48.9091 231.554 49.3452 230.571 50.1967C229.61 51.0482 229.024 52.232 228.836 53.6858H239.416L239.437 53.7066Z" fill="black"/>
<path d="M251.418 43.3432V64.9214H247.467V39.418C249.641 39.418 251.418 41.1833 251.418 43.3432Z" fill="black"/>
<path d="M260.012 64.0076C258.549 63.1976 257.42 62.0346 256.583 60.5601C255.747 59.0855 255.329 57.3618 255.329 55.4096C255.329 53.4573 255.747 51.7751 256.604 50.2798C257.461 48.7845 258.632 47.6423 260.117 46.8323C261.602 46.0223 263.253 45.6277 265.073 45.6277C266.892 45.6277 268.564 46.0223 270.028 46.8323C271.513 47.6423 272.684 48.7845 273.541 50.2798C274.398 51.7751 274.816 53.4781 274.816 55.4096C274.816 57.341 274.377 59.044 273.499 60.5393C272.621 62.0346 271.429 63.1976 269.903 64.0076C268.397 64.8176 266.724 65.2329 264.884 65.2329C263.044 65.2329 261.455 64.8176 259.991 64.0076H260.012ZM267.77 61.1C268.669 60.6224 269.38 59.8955 269.945 58.9194C270.509 57.964 270.781 56.7803 270.781 55.4096C270.781 54.0389 270.509 52.8551 269.986 51.9205C269.464 50.9652 268.753 50.259 267.874 49.7606C266.996 49.2829 266.055 49.0337 265.031 49.0337C264.006 49.0337 263.065 49.2829 262.208 49.7606C261.351 50.2383 260.661 50.9652 260.138 51.9205C259.636 52.8758 259.364 54.0389 259.364 55.4096C259.364 57.4448 259.887 59.044 260.953 60.1447C261.999 61.2662 263.337 61.8062 264.926 61.8062C265.951 61.8062 266.892 61.5569 267.791 61.0793L267.77 61.1Z" fill="black"/>
<path d="M278.643 50.259C279.437 48.7845 280.525 47.6423 281.905 46.8323C283.285 46.0223 284.811 45.607 286.505 45.607C287.76 45.607 288.993 45.877 290.206 46.4169C291.419 46.9569 292.381 47.6838 293.112 48.5768V39.418C295.308 39.418 297.106 41.1833 297.106 43.3848V64.9214H293.112V62.0554C292.464 62.9692 291.565 63.7376 290.415 64.3399C289.265 64.9422 287.948 65.2329 286.484 65.2329C284.811 65.2329 283.306 64.8176 281.926 63.9661C280.546 63.1353 279.458 61.9515 278.664 60.4562C277.869 58.9609 277.472 57.2372 277.472 55.3473C277.472 53.4573 277.869 51.7544 278.664 50.2798L278.643 50.259ZM292.276 51.9828C291.732 51.0275 291.021 50.2798 290.143 49.7814C289.265 49.2829 288.324 49.013 287.299 49.013C286.275 49.013 285.334 49.2622 284.456 49.7606C283.578 50.259 282.867 50.9859 282.323 51.9413C281.779 52.8966 281.508 54.0181 281.508 55.3265C281.508 56.6349 281.779 57.7771 282.323 58.774C282.867 59.7709 283.578 60.5185 284.477 61.0377C285.376 61.5569 286.317 61.8062 287.299 61.8062C288.282 61.8062 289.265 61.5569 290.143 61.0377C291.021 60.5393 291.732 59.7916 292.276 58.8155C292.82 57.8394 293.091 56.6972 293.091 55.3888C293.091 54.0804 292.82 52.9381 292.276 51.9828Z" fill="black"/>
<path d="M319.501 45.9185L307.77 73.831H303.672L307.561 64.5891L300.034 45.8977C302.689 45.8977 305.052 47.5384 305.972 50.0098L309.819 60.3732L315.402 45.8977H319.501V45.9185Z" fill="black"/>
<path d="M333.05 46.5C334.221 45.9185 335.517 45.6277 336.96 45.6277C338.654 45.6277 340.18 46.0223 341.539 46.8323C342.898 47.6423 343.986 48.7845 344.759 50.259C345.554 51.7336 345.93 53.4366 345.93 55.3473C345.93 57.2579 345.533 58.9609 344.759 60.4562C343.965 61.9515 342.898 63.1353 341.518 63.9661C340.138 64.7968 338.612 65.2329 336.96 65.2329C335.476 65.2329 334.158 64.9422 333.029 64.3814C331.9 63.8207 330.98 63.073 330.311 62.18V64.9422H326.359V39.4388C328.533 39.4388 330.311 41.2041 330.311 43.364V48.7845C330.98 47.8707 331.9 47.123 333.071 46.5208L333.05 46.5ZM341.1 51.9413C340.557 50.9859 339.846 50.259 338.947 49.7606C338.047 49.2622 337.106 49.013 336.082 49.013C335.057 49.013 334.137 49.2622 333.259 49.7814C332.36 50.2798 331.649 51.0275 331.105 51.9828C330.562 52.9381 330.29 54.0804 330.29 55.3888C330.29 56.6972 330.562 57.8394 331.105 58.8155C331.649 59.7916 332.36 60.5393 333.259 61.0377C334.158 61.5362 335.099 61.8062 336.082 61.8062C337.065 61.8062 338.047 61.5569 338.947 61.0377C339.846 60.5185 340.557 59.7709 341.1 58.774C341.644 57.7771 341.916 56.6349 341.916 55.3265C341.916 54.0181 341.644 52.8758 341.1 51.9413Z" fill="black"/>
<path d="M356.134 46.4169C357.096 45.877 358.225 45.607 359.543 45.607V49.6775H358.539C356.992 49.6775 355.821 50.0721 355.026 50.8406C354.232 51.6297 353.834 52.9797 353.834 54.9111V64.9006H349.882V45.9185H351.053C352.58 45.9185 353.834 47.1438 353.834 48.6807C354.42 47.7253 355.172 46.9569 356.134 46.4169Z" fill="black"/>
<path d="M380.515 45.9185V64.9006H376.563V62.6577C375.936 63.4469 375.12 64.0491 374.117 64.506C373.113 64.9629 372.047 65.1706 370.897 65.1706C369.391 65.1706 368.053 64.8591 366.861 64.236C365.669 63.613 364.728 62.6992 364.059 61.4739C363.369 60.2486 363.035 58.7948 363.035 57.071V45.8977C365.209 45.8977 366.966 47.6423 366.966 49.8021V56.4895C366.966 58.1925 367.384 59.5009 368.241 60.3939C369.098 61.3077 370.269 61.7646 371.754 61.7646C373.238 61.7646 374.409 61.3077 375.267 60.3939C376.124 59.4801 376.563 58.1925 376.563 56.4895V45.8977H380.515V45.9185Z" fill="black"/>
<path d="M388.607 64.423C387.415 63.883 386.474 63.1561 385.784 62.2215C385.094 61.287 384.718 60.2485 384.676 59.1063H388.774C388.837 59.9163 389.234 60.5808 389.945 61.1208C390.656 61.6608 391.534 61.9308 392.601 61.9308C393.667 61.9308 394.566 61.7231 395.194 61.287C395.8 60.8716 396.114 60.3109 396.114 59.6463C396.114 58.9402 395.779 58.4002 395.089 58.0679C394.399 57.7148 393.333 57.341 391.848 56.9256C390.405 56.531 389.255 56.1572 388.335 55.7834C387.415 55.4096 386.663 54.8488 385.993 54.1012C385.324 53.3327 385.011 52.3359 385.011 51.1105C385.011 50.0929 385.303 49.1791 385.91 48.3276C386.516 47.4969 387.373 46.8323 388.503 46.3546C389.632 45.877 390.907 45.6277 392.371 45.6277C394.545 45.6277 396.302 46.1677 397.619 47.2684C398.957 48.3691 399.668 49.8437 399.752 51.7336H395.8C395.737 50.8821 395.382 50.1967 394.755 49.6983C394.127 49.1999 393.291 48.9299 392.224 48.9299C391.158 48.9299 390.384 49.1168 389.82 49.5114C389.255 49.906 388.983 50.4252 388.983 51.069C388.983 51.5674 389.172 52.0036 389.548 52.3359C389.924 52.6889 390.364 52.9589 390.907 53.1458C391.43 53.3327 392.224 53.582 393.27 53.8935C394.65 54.2673 395.8 54.6411 396.678 55.015C397.577 55.3888 398.33 55.9495 398.978 56.6764C399.627 57.4033 399.961 58.3794 399.982 59.6047C399.982 60.6847 399.689 61.6608 399.083 62.4915C398.477 63.343 397.64 64.0076 396.532 64.4853C395.424 64.9629 394.148 65.2122 392.664 65.2122C391.179 65.2122 389.82 64.9422 388.628 64.4022L388.607 64.423Z" fill="black"/>
<path d="M418.048 46.5415C419.198 47.1646 420.097 48.0784 420.745 49.3037C421.414 50.529 421.728 51.9828 421.728 53.7066V64.9006H417.797V54.2881C417.797 52.5851 417.379 51.2767 416.522 50.3837C415.664 49.4699 414.493 49.013 413.009 49.013C411.524 49.013 410.353 49.4699 409.496 50.3837C408.639 51.2975 408.2 52.6058 408.2 54.2881V64.9006H404.248V39.3973C406.422 39.3973 408.2 41.1626 408.2 43.3225V48.1199C408.869 47.31 409.726 46.6869 410.751 46.2508C411.775 45.8147 412.904 45.5862 414.138 45.5862C415.602 45.5862 416.898 45.8977 418.048 46.5208V46.5415Z" fill="black"/>
<path d="M218.005 9.71952L177.356 36.0121C174.701 37.7358 172.192 39.688 169.871 41.8479L159.667 51.7128L160.252 52.502L160.858 53.312L173.321 46.5C176.081 44.9424 178.694 43.1355 181.141 41.121L218.381 10.2595C218.632 10.0518 218.256 9.55337 217.984 9.71952H218.005Z" fill="black"/>
<path d="M156.3 51.9205C155.84 51.9205 155.401 51.9828 155.046 52.1905C154.397 52.5435 153.937 53.1043 153.666 53.9142L152.056 58.5456L156.99 58.3794C157.848 58.3586 158.538 58.0679 159.06 57.5487C159.353 57.2579 159.541 56.8841 159.667 56.4687L160.545 53.7066L159.248 51.962H156.321L156.3 51.9205Z" fill="black"/>
<path d="M144.026 55.1811C140.764 53.2704 136.959 52.3982 133.195 52.772C120.21 54.0596 114.23 58.774 106.493 52.0451C76.6134 26.0433 68.4796 8.59803 68.4796 8.59803C68.4796 8.59803 67.6013 14.0601 65.134 22.3258C64.2976 24.818 63.7749 27.1233 62.9385 29.4285C62.1648 31.8792 61.3702 33.3745 60.5339 35.0567C60.1366 35.8667 59.6975 36.5936 59.2584 37.1543C57.7319 39.0858 56.2265 39.3973 54.93 39.065C54.8255 39.0442 54.721 39.0027 54.6164 38.9611C54.6164 38.9611 54.5955 38.9611 54.5746 38.9611C54.5746 38.9611 54.5328 38.9611 54.5119 38.9404C54.0309 38.7535 53.5918 38.5042 53.1945 38.2135C52.5672 37.7981 51.8772 37.2789 51.229 36.7597C50.3926 36.0951 49.4935 35.3059 48.5526 34.4129C48.3017 34.1845 48.1553 34.0391 48.1553 34.0391C40.7323 26.8533 31.093 13.977 31.093 13.977C24.841 6.08508 22.3736 0 22.3736 0C22.52 4.27825 21.809 9.94797 21.0981 14.4754C21.0981 14.4962 21.0772 14.517 21.0563 14.5585C20.9936 14.9531 20.9099 15.3685 20.8472 15.7631C20.8472 15.7631 17.0625 39.7711 13.4033 44.4024C12.6297 45.6277 11.3124 47.2684 9.80687 48.0784C9.30503 45.5862 6.87951 43.7794 4.14033 44.2155C2.07027 44.5478 0.376584 46.23 0.0838475 48.3068C-0.250708 50.4875 0.878417 52.4397 2.61392 53.395C2.76029 53.4781 2.90666 53.5612 3.07394 53.6235C3.11576 53.6235 3.22031 53.665 3.34576 53.7066C3.8476 53.8935 4.41216 53.9766 4.97672 53.9766C5.20673 53.9766 5.41583 53.9766 5.62492 53.935C6.27313 53.8935 6.98406 53.7689 7.69499 53.4574C7.73681 53.4574 7.75772 53.4366 7.79953 53.4158C10.5596 52.4812 12.546 50.6329 13.8424 49.0753C20.429 42.3048 23.67 21.7235 23.67 21.7235C24.4228 19.8336 25.1964 19.1067 27.5383 19.3767C28.2283 19.4598 29.1484 19.9375 30.152 20.7267C30.9675 21.4951 32.6612 23.4681 35.8604 28.5355C39.3105 34.4544 43.9106 42.471 44.8097 44.0286C44.8934 44.174 44.9979 44.3193 45.0816 44.4647C45.0816 44.4855 45.1025 44.5063 45.1234 44.5478C48.4689 49.9683 52.5254 52.8343 56.6656 52.1074C59.2584 51.6713 60.9102 50.0306 62.353 45.8562C62.7712 44.6309 63.0221 44.0494 63.3985 42.5956C64.214 39.5219 65.5522 35.659 66.8695 31.4223C69.1905 23.9042 71.7624 26.5625 75.1497 29.8231C75.6725 30.3216 77.0734 31.6507 77.0734 31.6507C78.4326 33.146 79.6663 34.4129 80.7745 35.5344C80.7745 35.5344 99.6141 55.015 115.861 62.0346C117.513 62.8238 119.311 63.4261 121.172 63.883C121.36 63.9245 121.569 63.9868 121.758 64.0284C121.883 64.0491 122.008 64.0699 122.113 64.1114C122.197 64.1114 122.28 64.153 122.385 64.1737C125.27 64.776 128.24 65.0252 130.958 65.0668C136.666 65.1291 142.395 63.7376 147.079 60.4978L149.672 58.7117L144.068 55.1811H144.026ZM23.0636 23.2812C23.2727 22.6789 23.44 22.1597 23.6282 21.7028L23.0636 23.2812Z" fill="black"/>
<path d="M292.59 87.4341H287.676C287.718 88.0364 287.927 88.5141 288.303 88.8464C288.68 89.1786 289.14 89.3448 289.683 89.3448C290.122 89.3448 290.499 89.241 290.792 89.0333C291.084 88.8256 291.293 88.5556 291.419 88.2233H292.527C292.36 88.8048 292.025 89.2825 291.544 89.6563C291.042 90.0301 290.436 90.1963 289.704 90.1963C289.119 90.1963 288.596 90.0717 288.136 89.8017C287.676 89.5317 287.32 89.1786 287.049 88.701C286.777 88.2233 286.651 87.6626 286.651 87.0395C286.651 86.4165 286.777 85.8557 287.028 85.3781C287.279 84.9004 287.634 84.5266 288.094 84.2774C288.554 84.0281 289.077 83.8828 289.683 83.8828C290.29 83.8828 290.791 84.0074 291.231 84.2566C291.67 84.5058 292.025 84.8589 292.276 85.295C292.527 85.7311 292.632 86.2296 292.632 86.7903C292.632 86.9772 292.632 87.1849 292.59 87.3926V87.4341ZM291.314 85.6065C291.147 85.3365 290.917 85.1081 290.624 84.9627C290.331 84.8173 289.997 84.755 289.641 84.755C289.119 84.755 288.68 84.9212 288.324 85.2535C287.969 85.5858 287.76 86.0427 287.697 86.6034H291.586C291.586 86.2088 291.502 85.8765 291.335 85.6065H291.314Z" fill="black"/>
<path d="M299.427 83.9866V90.0925H298.403V89.1994C298.214 89.5109 297.943 89.7602 297.587 89.9263C297.232 90.0925 296.855 90.1963 296.437 90.1963C295.956 90.1963 295.538 90.0925 295.141 89.9055C294.764 89.7186 294.451 89.4071 294.242 89.0125C294.032 88.6179 293.907 88.1402 293.907 87.5795V84.0074H294.911V87.4549C294.911 88.0572 295.057 88.5141 295.371 88.8464C295.684 89.1787 296.103 89.324 296.625 89.324C297.148 89.324 297.608 89.1579 297.922 88.8256C298.235 88.4933 298.403 88.0156 298.403 87.3718V84.0281H299.427V83.9866Z" fill="black"/>
<path d="M303.066 84.2566C303.463 84.0281 303.923 83.9035 304.466 83.9035C305.01 83.9035 305.512 84.0281 305.951 84.2981C306.39 84.5473 306.746 84.9212 306.997 85.3988C307.247 85.8765 307.373 86.4165 307.373 87.0395C307.373 87.6626 307.247 88.2025 306.997 88.6802C306.746 89.1579 306.39 89.5317 305.951 89.8017C305.512 90.0717 305.01 90.1963 304.466 90.1963C303.923 90.1963 303.484 90.0717 303.086 89.8432C302.689 89.6148 302.375 89.324 302.166 88.971V93H301.142V84.0074H302.166V85.1289C302.375 84.7758 302.668 84.485 303.066 84.2566ZM306.056 85.8142C305.867 85.4819 305.617 85.2119 305.303 85.025C304.989 84.8381 304.634 84.755 304.257 84.755C303.881 84.755 303.546 84.8381 303.212 85.025C302.898 85.2119 302.647 85.4611 302.459 85.8142C302.271 86.1673 302.166 86.5619 302.166 87.0188C302.166 87.4757 302.25 87.891 302.459 88.2233C302.647 88.5764 302.898 88.8256 303.212 89.0125C303.526 89.1994 303.881 89.2825 304.257 89.2825C304.634 89.2825 304.989 89.1994 305.303 89.0125C305.617 88.8256 305.867 88.5764 306.056 88.2233C306.244 87.8703 306.327 87.4757 306.327 86.998C306.327 86.5203 306.244 86.1465 306.056 85.7934V85.8142Z" fill="black"/>
<path d="M313.039 84.1735C313.416 84.3604 313.709 84.672 313.918 85.0666C314.127 85.4611 314.231 85.9388 314.231 86.4996V90.0925H313.228V86.6449C313.228 86.0427 313.081 85.565 312.768 85.2535C312.454 84.9212 312.036 84.7758 311.513 84.7758C310.99 84.7758 310.551 84.9419 310.237 85.2742C309.924 85.6065 309.757 86.0842 309.757 86.728V90.0925H308.732V81.8475H309.757V84.8589C309.966 84.5473 310.237 84.2981 310.593 84.132C310.948 83.9658 311.346 83.8828 311.785 83.8828C312.245 83.8828 312.663 83.9866 313.039 84.1735Z" fill="black"/>
<path d="M317.033 89.8017C316.573 89.5525 316.197 89.1786 315.925 88.701C315.653 88.2233 315.528 87.6626 315.528 87.0395C315.528 86.4165 315.674 85.8557 315.946 85.3781C316.218 84.9004 316.594 84.5266 317.054 84.2774C317.535 84.0281 318.058 83.8828 318.643 83.8828C319.229 83.8828 319.751 84.0074 320.232 84.2774C320.713 84.5266 321.069 84.9004 321.341 85.3781C321.612 85.8557 321.759 86.4165 321.759 87.0395C321.759 87.6626 321.612 88.2233 321.341 88.701C321.069 89.1786 320.671 89.5525 320.211 89.8017C319.751 90.0509 319.208 90.1963 318.622 90.1963C318.037 90.1963 317.535 90.0717 317.054 89.8017H317.033ZM319.626 89.054C319.94 88.8879 320.211 88.6179 320.4 88.2856C320.588 87.9533 320.692 87.538 320.692 87.0395C320.692 86.5411 320.588 86.1257 320.4 85.7934C320.211 85.4611 319.961 85.1912 319.626 85.025C319.312 84.8589 318.978 84.7758 318.601 84.7758C318.225 84.7758 317.89 84.8589 317.577 85.025C317.263 85.1912 317.012 85.4404 316.824 85.7934C316.636 86.1257 316.552 86.5411 316.552 87.0395C316.552 87.538 316.636 87.9533 316.824 88.3064C317.012 88.6594 317.263 88.9087 317.556 89.0748C317.87 89.241 318.204 89.324 318.56 89.324C318.915 89.324 319.27 89.241 319.584 89.0748L319.626 89.054Z" fill="black"/>
<path d="M327.885 84.5681C328.345 85.025 328.575 85.6688 328.575 86.5203V90.1132H327.572V86.6657C327.572 86.0634 327.425 85.5858 327.112 85.2742C326.798 84.9419 326.38 84.7966 325.857 84.7966C325.334 84.7966 324.895 84.9627 324.582 85.295C324.268 85.6273 324.101 86.105 324.101 86.7488V90.1132H323.076V84.0074H324.101V84.8796C324.31 84.5681 324.582 84.3189 324.916 84.1528C325.251 83.9866 325.648 83.9035 326.066 83.9035C326.819 83.9035 327.425 84.132 327.885 84.5681Z" fill="black"/>
<path d="M330.29 82.8028C330.165 82.6782 330.081 82.5121 330.081 82.3044C330.081 82.0967 330.144 81.9513 330.29 81.8059C330.436 81.6606 330.583 81.5983 330.792 81.5983C331.001 81.5983 331.147 81.6606 331.273 81.8059C331.398 81.9513 331.461 82.0967 331.461 82.3044C331.461 82.5121 331.398 82.6574 331.273 82.8028C331.147 82.9482 330.98 83.0105 330.792 83.0105C330.604 83.0105 330.436 82.9482 330.29 82.8028ZM331.273 83.9866V90.0925H330.248V83.9866H331.273Z" fill="black"/>
<path d="M333.008 85.3781C333.259 84.9004 333.615 84.5473 334.075 84.2774C334.535 84.0074 335.036 83.8828 335.622 83.8828C336.375 83.8828 337.002 84.0697 337.483 84.4227C337.964 84.7966 338.298 85.295 338.445 85.9388H337.337C337.232 85.565 337.023 85.2742 336.73 85.0665C336.437 84.8589 336.061 84.7343 335.601 84.7343C335.016 84.7343 334.556 84.9419 334.179 85.3365C333.824 85.7311 333.635 86.2919 333.635 87.0188C333.635 87.7456 333.824 88.3272 334.179 88.7218C334.535 89.1163 335.016 89.324 335.601 89.324C336.04 89.324 336.416 89.2202 336.73 89.0125C337.023 88.8048 337.232 88.5141 337.337 88.1195H338.445C338.277 88.7425 337.943 89.241 337.462 89.6148C336.96 89.9886 336.354 90.1755 335.622 90.1755C335.036 90.1755 334.514 90.0509 334.075 89.7809C333.615 89.5317 333.259 89.1579 333.008 88.6802C332.757 88.2025 332.632 87.6418 332.632 87.0188C332.632 86.3957 332.757 85.835 333.008 85.3573V85.3781Z" fill="black"/>
<path d="M342.815 85.3781C343.066 84.9004 343.421 84.5473 343.86 84.2774C344.299 84.0074 344.801 83.8828 345.345 83.8828C345.889 83.8828 346.349 84.0074 346.746 84.2358C347.143 84.4643 347.436 84.755 347.624 85.1081V83.9866H348.649V90.0925H347.624V88.9502C347.415 89.3033 347.122 89.594 346.725 89.8432C346.328 90.0717 345.868 90.1963 345.324 90.1963C344.78 90.1963 344.279 90.0717 343.839 89.8017C343.4 89.5317 343.045 89.1579 342.794 88.6802C342.543 88.2025 342.418 87.6418 342.418 87.0395C342.418 86.4372 342.543 85.8765 342.794 85.3988L342.815 85.3781ZM347.352 85.835C347.164 85.4819 346.913 85.2327 346.6 85.0458C346.286 84.8589 345.93 84.7758 345.554 84.7758C345.178 84.7758 344.822 84.8589 344.509 85.0458C344.195 85.2327 343.944 85.4819 343.756 85.835C343.568 86.188 343.484 86.5826 343.484 87.0395C343.484 87.4964 343.568 87.9118 343.756 88.2649C343.944 88.6179 344.195 88.8671 344.509 89.054C344.822 89.241 345.178 89.324 345.554 89.324C345.93 89.324 346.286 89.241 346.6 89.054C346.913 88.8671 347.164 88.6179 347.352 88.2649C347.54 87.9118 347.624 87.5172 347.624 87.0603C347.624 86.6034 347.54 86.188 347.352 85.8557V85.835Z" fill="black"/>
<path d="M352.182 84.1735C352.517 83.9866 352.914 83.8828 353.395 83.8828V84.9212H353.123C351.973 84.9212 351.409 85.5442 351.409 86.7695V90.0925H350.384V83.9866H351.409V84.9835C351.576 84.6304 351.848 84.3604 352.182 84.1735Z" fill="black"/>
<path d="M355.821 84.8381V88.431C355.821 88.7218 355.883 88.9294 356.009 89.054C356.134 89.1787 356.364 89.241 356.678 89.241H357.431V90.0925H356.511C355.946 90.0925 355.507 89.9678 355.235 89.6979C354.963 89.4279 354.817 89.0125 354.817 88.4102V84.8173H354.022V83.9866H354.817V82.4498H355.842V83.9866H357.452V84.8173H355.842L355.821 84.8381Z" fill="black"/>
<path d="M367.237 87.4341H362.324C362.365 88.0364 362.575 88.5141 362.951 88.8464C363.327 89.1786 363.787 89.3448 364.331 89.3448C364.77 89.3448 365.146 89.241 365.439 89.0333C365.732 88.8256 365.941 88.5556 366.067 88.2233H367.175C367.007 88.8048 366.673 89.2825 366.192 89.6563C365.69 90.0301 365.084 90.1963 364.352 90.1963C363.766 90.1963 363.244 90.0717 362.784 89.8017C362.324 89.5317 361.968 89.1786 361.696 88.701C361.425 88.2233 361.299 87.6626 361.299 87.0395C361.299 86.4165 361.425 85.8557 361.675 85.3781C361.926 84.9004 362.282 84.5266 362.742 84.2774C363.202 84.0281 363.725 83.8828 364.331 83.8828C364.937 83.8828 365.439 84.0074 365.878 84.2566C366.317 84.5058 366.673 84.8589 366.924 85.295C367.175 85.7311 367.279 86.2296 367.279 86.7903C367.279 86.9772 367.279 87.1849 367.237 87.3926V87.4341ZM365.941 85.6065C365.774 85.3365 365.544 85.1081 365.251 84.9627C364.958 84.8173 364.624 84.755 364.268 84.755C363.746 84.755 363.306 84.9212 362.951 85.2535C362.595 85.5858 362.386 86.0427 362.324 86.6034H366.213C366.213 86.2088 366.129 85.8765 365.962 85.6065H365.941Z" fill="black"/>
<path d="M371.817 90.0925L370.353 87.8287L368.952 90.0925H367.886L369.872 87.0603L367.886 83.9866H369.036L370.499 86.2503L371.9 83.9866H372.967L371.001 86.998L372.988 90.0925H371.838H371.817Z" fill="black"/>
<path d="M375.894 84.2566C376.291 84.0281 376.751 83.9035 377.295 83.9035C377.839 83.9035 378.341 84.0281 378.78 84.2981C379.219 84.5473 379.574 84.9212 379.825 85.3988C380.076 85.8765 380.201 86.4165 380.201 87.0395C380.201 87.6626 380.076 88.2025 379.825 88.6802C379.574 89.1579 379.219 89.5317 378.78 89.8017C378.341 90.0717 377.839 90.1963 377.295 90.1963C376.751 90.1963 376.312 90.0717 375.915 89.8432C375.518 89.6148 375.204 89.324 374.995 88.971V93H373.97V84.0074H374.995V85.1289C375.204 84.7758 375.497 84.485 375.894 84.2566ZM378.884 85.8142C378.696 85.4819 378.445 85.2119 378.131 85.025C377.818 84.8381 377.462 84.755 377.086 84.755C376.71 84.755 376.375 84.8381 376.04 85.025C375.727 85.2119 375.476 85.4611 375.288 85.8142C375.1 86.1673 374.995 86.5619 374.995 87.0188C374.995 87.4757 375.079 87.891 375.288 88.2233C375.476 88.5764 375.727 88.8256 376.04 89.0125C376.354 89.1994 376.71 89.2825 377.086 89.2825C377.462 89.2825 377.818 89.1994 378.131 89.0125C378.445 88.8256 378.696 88.5764 378.884 88.2233C379.072 87.8703 379.156 87.4757 379.156 86.998C379.156 86.5203 379.072 86.1465 378.884 85.7934V85.8142Z" fill="black"/>
<path d="M387.123 87.4341H382.209C382.251 88.0364 382.46 88.5141 382.836 88.8464C383.212 89.1786 383.672 89.3448 384.216 89.3448C384.655 89.3448 385.032 89.241 385.324 89.0333C385.617 88.8256 385.826 88.5556 385.952 88.2233H387.06C386.893 88.8048 386.558 89.2825 386.077 89.6563C385.575 90.0301 384.969 90.1963 384.237 90.1963C383.652 90.1963 383.129 90.0717 382.669 89.8017C382.209 89.5317 381.853 89.1786 381.581 88.701C381.31 88.2233 381.184 87.6626 381.184 87.0395C381.184 86.4165 381.31 85.8557 381.561 85.3781C381.811 84.9004 382.167 84.5266 382.627 84.2774C383.087 84.0281 383.61 83.8828 384.216 83.8828C384.822 83.8828 385.324 84.0074 385.763 84.2566C386.203 84.5058 386.558 84.8589 386.809 85.295C387.06 85.7311 387.164 86.2296 387.164 86.7903C387.164 86.9772 387.164 87.1849 387.123 87.3926V87.4341ZM385.847 85.6065C385.68 85.3365 385.45 85.1081 385.157 84.9627C384.864 84.8173 384.53 84.755 384.174 84.755C383.652 84.755 383.212 84.9212 382.857 85.2535C382.502 85.5858 382.292 86.0427 382.23 86.6034H386.119C386.119 86.2088 386.035 85.8765 385.868 85.6065H385.847Z" fill="black"/>
<path d="M390.301 84.1735C390.635 83.9866 391.033 83.8828 391.514 83.8828V84.9212H391.242C390.092 84.9212 389.527 85.5442 389.527 86.7695V90.0925H388.503V83.9866H389.527V84.9835C389.694 84.6304 389.966 84.3604 390.301 84.1735Z" fill="black"/>
<path d="M392.726 82.8028C392.601 82.6782 392.517 82.5121 392.517 82.3044C392.517 82.0967 392.58 81.9513 392.726 81.8059C392.873 81.6606 393.019 81.5983 393.228 81.5983C393.437 81.5983 393.584 81.6606 393.709 81.8059C393.835 81.9513 393.897 82.0967 393.897 82.3044C393.897 82.5121 393.835 82.6574 393.709 82.8028C393.584 82.9482 393.416 83.0105 393.228 83.0105C393.04 83.0105 392.873 82.9482 392.726 82.8028ZM393.709 83.9866V90.0925H392.685V83.9866H393.709Z" fill="black"/>
<path d="M401.028 87.4341H396.114C396.156 88.0364 396.365 88.5141 396.741 88.8464C397.117 89.1786 397.577 89.3448 398.121 89.3448C398.56 89.3448 398.937 89.241 399.229 89.0333C399.522 88.8256 399.731 88.5556 399.857 88.2233H400.965C400.798 88.8048 400.463 89.2825 399.982 89.6563C399.48 90.0301 398.874 90.1963 398.142 90.1963C397.557 90.1963 397.034 90.0717 396.574 89.8017C396.114 89.5317 395.758 89.1786 395.486 88.701C395.215 88.2233 395.089 87.6626 395.089 87.0395C395.089 86.4165 395.215 85.8557 395.466 85.3781C395.716 84.9004 396.072 84.5266 396.532 84.2774C396.992 84.0281 397.515 83.8828 398.121 83.8828C398.727 83.8828 399.229 84.0074 399.668 84.2566C400.108 84.5058 400.463 84.8589 400.714 85.295C400.965 85.7311 401.069 86.2296 401.069 86.7903C401.069 86.9772 401.069 87.1849 401.028 87.3926V87.4341ZM399.752 85.6065C399.585 85.3365 399.355 85.1081 399.062 84.9627C398.769 84.8173 398.435 84.755 398.079 84.755C397.557 84.755 397.117 84.9212 396.762 85.2535C396.406 85.5858 396.197 86.0427 396.135 86.6034H400.024C400.024 86.2088 399.94 85.8765 399.773 85.6065H399.752Z" fill="black"/>
<path d="M407.217 84.5681C407.677 85.025 407.907 85.6688 407.907 86.5203V90.1132H406.903V86.6657C406.903 86.0634 406.757 85.5858 406.443 85.2742C406.13 84.9419 405.711 84.7966 405.189 84.7966C404.666 84.7966 404.227 84.9627 403.913 85.295C403.599 85.6273 403.432 86.105 403.432 86.7488V90.1132H402.408V84.0074H403.432V84.8796C403.641 84.5681 403.913 84.3189 404.248 84.1528C404.582 83.9866 404.98 83.9035 405.398 83.9035C406.15 83.9035 406.757 84.132 407.217 84.5681Z" fill="black"/>
<path d="M409.58 85.3781C409.831 84.9004 410.186 84.5473 410.646 84.2774C411.106 84.0074 411.608 83.8828 412.193 83.8828C412.946 83.8828 413.573 84.0697 414.054 84.4227C414.535 84.7966 414.87 85.295 415.016 85.9388H413.908C413.803 85.565 413.594 85.2742 413.302 85.0665C413.009 84.8589 412.632 84.7343 412.172 84.7343C411.587 84.7343 411.127 84.9419 410.751 85.3365C410.395 85.7311 410.207 86.2919 410.207 87.0188C410.207 87.7456 410.395 88.3272 410.751 88.7218C411.106 89.1163 411.587 89.324 412.172 89.324C412.612 89.324 412.988 89.2202 413.302 89.0125C413.594 88.8048 413.803 88.5141 413.908 88.1195H415.016C414.849 88.7425 414.514 89.241 414.033 89.6148C413.532 89.9886 412.925 90.1755 412.193 90.1755C411.608 90.1755 411.085 90.0509 410.646 89.7809C410.186 89.5317 409.831 89.1579 409.58 88.6802C409.329 88.2025 409.203 87.6418 409.203 87.0188C409.203 86.3957 409.329 85.835 409.58 85.3573V85.3781Z" fill="black"/>
<path d="M421.958 87.4341H417.044C417.086 88.0364 417.295 88.5141 417.672 88.8464C418.048 89.1786 418.508 89.3448 419.052 89.3448C419.491 89.3448 419.867 89.241 420.16 89.0333C420.453 88.8256 420.662 88.5556 420.787 88.2233H421.895C421.728 88.8048 421.394 89.2825 420.913 89.6563C420.411 90.0301 419.804 90.1963 419.073 90.1963C418.487 90.1963 417.964 90.0717 417.504 89.8017C417.044 89.5317 416.689 89.1786 416.417 88.701C416.145 88.2233 416.02 87.6626 416.02 87.0395C416.02 86.4165 416.145 85.8557 416.396 85.3781C416.647 84.9004 417.003 84.5266 417.463 84.2774C417.923 84.0281 418.445 83.8828 419.052 83.8828C419.658 83.8828 420.16 84.0074 420.599 84.2566C421.038 84.5058 421.394 84.8589 421.645 85.295C421.895 85.7311 422 86.2296 422 86.7903C422 86.9772 422 87.1849 421.958 87.3926V87.4341ZM420.683 85.6065C420.515 85.3365 420.285 85.1081 419.993 84.9627C419.7 84.8173 419.365 84.755 419.01 84.755C418.487 84.755 418.048 84.9212 417.693 85.2535C417.337 85.5858 417.128 86.0427 417.065 86.6034H420.955C420.955 86.2088 420.871 85.8765 420.704 85.6065H420.683Z" fill="black"/>
</g>
<defs>
<clipPath id="clip0_936_6261">
<rect width="422" height="93" fill="white"/>
</clipPath>
</defs>
</svg>
