<svg width="29" height="28" viewBox="0 0 29 28" fill="none" xmlns="http://www.w3.org/2000/svg">
<path d="M22.5556 17.231V10.769C22.5556 10.4834 22.6687 10.2095 22.8701 10.0075C23.0716 9.80553 23.3448 9.69206 23.6296 9.69206C23.9145 9.69206 24.1877 9.80553 24.3891 10.0075C24.5905 10.2095 24.7037 10.4834 24.7037 10.769V17.231C24.7037 17.5166 24.5905 17.7905 24.3891 17.9925C24.1877 18.1945 23.9145 18.3079 23.6296 18.3079C23.3448 18.3079 23.0716 18.1945 22.8701 17.9925C22.6687 17.7905 22.5556 17.5166 22.5556 17.231ZM27.9259 7.53809C27.6411 7.53809 27.3679 7.65156 27.1664 7.85353C26.965 8.05551 26.8519 8.32944 26.8519 8.61507V19.3849C26.8519 19.6706 26.965 19.9445 27.1664 20.1465C27.3679 20.3484 27.6411 20.4619 27.9259 20.4619C28.2108 20.4619 28.484 20.3484 28.6854 20.1465C28.8868 19.9445 29 19.6706 29 19.3849V8.61507C29 8.32944 28.8868 8.05551 28.6854 7.85353C28.484 7.65156 28.2108 7.53809 27.9259 7.53809ZM26.5726 25.1226C26.6694 25.2269 26.7447 25.3494 26.7939 25.4831C26.8432 25.6168 26.8655 25.759 26.8596 25.9014C26.8536 26.0437 26.8196 26.1835 26.7594 26.3126C26.6992 26.4417 26.614 26.5576 26.5088 26.6534C26.4036 26.7493 26.2805 26.8232 26.1466 26.871C26.0127 26.9188 25.8707 26.9395 25.7287 26.9318C25.5868 26.9242 25.4478 26.8883 25.3198 26.8264C25.1918 26.7645 25.0773 26.6777 24.983 26.5711L19.3333 20.3394V26.9238C19.3332 27.1253 19.2766 27.3228 19.1702 27.4937C19.0637 27.6646 18.9115 27.8021 18.7309 27.8906C18.5503 27.9791 18.3486 28.015 18.1487 27.9943C17.9488 27.9735 17.7587 27.897 17.6 27.7733L8.22338 20.4619H2.14815C1.57842 20.4619 1.03203 20.235 0.629178 19.831C0.226322 19.4271 0 18.8792 0 18.3079V9.69206C0 9.12079 0.226322 8.57292 0.629178 8.16897C1.03203 7.76503 1.57842 7.53809 2.14815 7.53809H7.72662L3.50148 2.87744C3.31392 2.66544 3.21725 2.38785 3.23243 2.10486C3.24762 1.82187 3.37343 1.55629 3.58259 1.36569C3.79175 1.17509 4.06741 1.07484 4.34979 1.08667C4.63218 1.0985 4.89853 1.22146 5.09111 1.42889L26.5726 25.1226ZM17.1852 17.97L9.68009 9.69206H2.14815V18.3079H8.59259C8.83155 18.3076 9.06371 18.3877 9.25181 18.5355L17.1852 24.7214V17.97ZM13.5682 6.09897L17.1852 3.27188V11.1433C17.1852 11.4289 17.2983 11.7029 17.4998 11.9048C17.7012 12.1068 17.9744 12.2203 18.2593 12.2203C18.5441 12.2203 18.8173 12.1068 19.0187 11.9048C19.2202 11.7029 19.3333 11.4289 19.3333 11.1433V1.07618C19.3332 0.874655 19.2766 0.677216 19.1702 0.50631C19.0637 0.335404 18.9115 0.197887 18.7309 0.109393C18.5503 0.0208996 18.3486 -0.0150199 18.1487 0.00571836C17.9488 0.0264566 17.7587 0.103021 17.6 0.226706L12.2498 4.40002C12.0295 4.57686 11.8874 4.83357 11.8543 5.11463C11.8212 5.39569 11.8998 5.67851 12.073 5.90193C12.2463 6.12535 12.5003 6.27142 12.7801 6.30854C13.0599 6.34567 13.343 6.27087 13.5682 6.10031V6.09897Z" fill="black"/>
</svg>
