<svg width="36" height="36" viewBox="0 0 36 36" fill="none" xmlns="http://www.w3.org/2000/svg">
<path d="M22.9936 3.48889C22.8044 3.39671 22.5932 3.35943 22.3839 3.38131C22.1745 3.40318 21.9756 3.48333 21.8095 3.61264L11.9883 11.25H5.625C5.02826 11.25 4.45597 11.487 4.03401 11.909C3.61205 12.331 3.375 12.9032 3.375 13.5V22.5C3.375 23.0967 3.61205 23.669 4.03401 24.091C4.45597 24.5129 5.02826 24.75 5.625 24.75H11.9883L21.8095 32.3873C21.9757 32.5165 22.1748 32.5965 22.3842 32.6182C22.5936 32.6398 22.8049 32.6023 22.994 32.5099C23.1831 32.4174 23.3425 32.2738 23.4541 32.0953C23.5656 31.9167 23.6248 31.7105 23.625 31.5V4.49999C23.625 4.28923 23.5659 4.0827 23.4542 3.90394C23.3426 3.72517 23.183 3.58136 22.9936 3.48889ZM21.375 29.1994L13.0655 22.7376C12.8685 22.5833 12.6253 22.4996 12.375 22.5H5.625V13.5H12.375C12.6253 13.5004 12.8685 13.4167 13.0655 13.2623L21.375 6.80061V29.1994ZM29.25 14.625V21.375C29.25 21.6734 29.1315 21.9595 28.9205 22.1705C28.7095 22.3815 28.4234 22.5 28.125 22.5C27.8266 22.5 27.5405 22.3815 27.3295 22.1705C27.1185 21.9595 27 21.6734 27 21.375V14.625C27 14.3266 27.1185 14.0405 27.3295 13.8295C27.5405 13.6185 27.8266 13.5 28.125 13.5C28.4234 13.5 28.7095 13.6185 28.9205 13.8295C29.1315 14.0405 29.25 14.3266 29.25 14.625ZM33.75 12.375V23.625C33.75 23.9234 33.6315 24.2095 33.4205 24.4205C33.2095 24.6315 32.9234 24.75 32.625 24.75C32.3266 24.75 32.0405 24.6315 31.8295 24.4205C31.6185 24.2095 31.5 23.9234 31.5 23.625V12.375C31.5 12.0766 31.6185 11.7905 31.8295 11.5795C32.0405 11.3685 32.3266 11.25 32.625 11.25C32.9234 11.25 33.2095 11.3685 33.4205 11.5795C33.6315 11.7905 33.75 12.0766 33.75 12.375Z" fill="black"/>
</svg>
